<svg xmlns="http://www.w3.org/2000/svg" xmlns:xlink="http://www.w3.org/1999/xlink" width="125.052" height="34" viewBox="0 0 125.052 34">
  <defs>
    <clipPath id="clip-path">
      <rect id="Rectangle_1519" data-name="Rectangle 1519" width="15" height="34" transform="translate(499 462)" fill="#2699fb"/>
    </clipPath>
  </defs>
  <g id="Group_586" data-name="Group 586" transform="translate(-396.104 -462)">
    <g id="Group_395" data-name="Group 395" transform="translate(392.104 464.63)">
      <path id="Path_220" data-name="Path 220" d="M13.989,5.37l3.087,6.254,6.9,1L18.983,17.5l1.179,6.874-6.173-3.246L7.815,24.37,8.994,17.5,4,12.628l6.9-1Z" fill="#2699fb"/>
    </g>
    <path id="Path_246" data-name="Path 246" d="M13.989,5.37l3.087,6.254,6.9,1L18.983,17.5l1.179,6.874-6.173-3.246L7.815,24.37,8.994,17.5,4,12.628l6.9-1Z" transform="translate(418.104 464.63)" fill="#2699fb"/>
    <path id="Path_247" data-name="Path 247" d="M13.989,5.37l3.087,6.254,6.9,1L18.983,17.5l1.179,6.874-6.173-3.246L7.815,24.37,8.994,17.5,4,12.628l6.9-1Z" transform="translate(444.104 464.63)" fill="#2699fb"/>
    <path id="Path_248" data-name="Path 248" d="M13.989,5.37l3.087,6.254,6.9,1L18.983,17.5l1.179,6.874-6.173-3.246L7.815,24.37,8.994,17.5,4,12.628l6.9-1Z" transform="translate(470.104 464.63)" fill="#2699fb"/>
    <g id="Group_585" data-name="Group 585">
      <g id="Mask_Group_11" data-name="Mask Group 11" clip-path="url(#clip-path)">
        <path id="Path_249" data-name="Path 249" d="M13.989,5.37l3.087,6.254,6.9,1L18.983,17.5l1.179,6.874-6.173-3.246L7.815,24.37,8.994,17.5,4,12.628l6.9-1Z" transform="translate(496.104 464.63)" fill="#2699fb"/>
      </g>
      <path id="Path_250" data-name="Path 250" d="M13.989,5.37l3.087,6.254,6.9,1L18.983,17.5l1.179,6.874-6.173-3.246L7.815,24.37,8.994,17.5,4,12.628l6.9-1Z" transform="translate(496.104 464.63)" fill="none" stroke="#2699fb" stroke-linecap="square" stroke-miterlimit="10" stroke-width="1"/>
    </g>
  </g>
</svg>
