<svg xmlns="http://www.w3.org/2000/svg" xmlns:xlink="http://www.w3.org/1999/xlink" viewBox="0 0 1422.31 1262.41"><defs><style>.cls-1,.cls-10,.cls-11,.cls-12,.cls-13,.cls-14,.cls-15,.cls-4,.cls-5,.cls-6,.cls-7,.cls-8,.cls-9{fill:none;}.cls-2{clip-path:url(#clip-path);}.cls-3{clip-path:url(#clip-path-2);}.cls-4{stroke:#65b2d3;stroke-width:14.8px;}.cls-10,.cls-11,.cls-12,.cls-13,.cls-14,.cls-15,.cls-4,.cls-5,.cls-6,.cls-7,.cls-8,.cls-9{stroke-linecap:round;stroke-linejoin:round;}.cls-5{stroke:#d3a400;stroke-width:9.42px;}.cls-6{stroke:#9fb103;}.cls-10,.cls-12,.cls-6{stroke-width:6.73px;}.cls-7{stroke:#e94250;stroke-width:26.91px;}.cls-8{stroke:#b7326b;}.cls-8,.cls-9{stroke-width:20.18px;}.cls-9{stroke:#3cb5a1;}.cls-10,.cls-11{stroke:#a191b2;}.cls-11{stroke-width:13.46px;}.cls-12,.cls-14{stroke:#ea002a;}.cls-13{stroke:#dfc639;stroke-width:21.53px;}.cls-14{stroke-width:10.09px;}.cls-15{stroke:#007298;stroke-width:18.17px;}</style><clipPath id="clip-path" transform="translate(134.53 -194.37)"><rect class="cls-1" width="1280" height="5600"/></clipPath><clipPath id="clip-path-2" transform="translate(134.53 -194.37)"><path class="cls-1" d="M438.56,931.56a29.25,29.25,0,0,0,4-1.32l.11,0a27.21,27.21,0,0,0,3.89,1.28c.71.15,1.42.25,2.14.33h-.26c-.26,0-.5,0-.75,0h-11.8a22,22,0,0,0,2.67-.37m-9.95-70.31v6.45h3.28a6.25,6.25,0,0,1,6.36,6.12V878a27.2,27.2,0,0,1-2.95-.64,20,20,0,0,0-22.46,8.57c-4.23,6.36-5.51,14.81-3.52,23.19a31.79,31.79,0,0,0,10.93,17.67A23.3,23.3,0,0,0,433,931.93H399c-8.74,0-15.86,6.79-15.86,15.13S390.24,962.2,399,962.2h12.11l.09-.06c.43,0,.86.06,1.3.06h34.7l0-.09,1.17.06,49.73.1v-6.44l-49.72-.11a8.7,8.7,0,1,1,0-17.38l49.73.1,0-6.45-45-.09a18.34,18.34,0,0,0,8.17-2.79,34.41,34.41,0,0,0,14.47-19.93,29.53,29.53,0,0,0,.94-4.71l.22-1.81a11.14,11.14,0,0,1-1.74.15,9.58,9.58,0,0,1-9.8-9.36,9.37,9.37,0,0,1,6.27-8.72l-1.14-1.27a20.85,20.85,0,0,0-8.37-5.72,9.53,9.53,0,0,0,.9-4v-5.58h-9.93a10.61,10.61,0,0,0-8.24,3.85,13,13,0,0,0-13-10.71Z"/></clipPath></defs><g id="Layer_2" data-name="Layer 2"><g id="Layer_1-2" data-name="Layer 1"><g class="cls-2"><path d="M448.7,931.89h-.26c-.26,0-.5,0-.75,0h-11.8a22,22,0,0,0,2.67-.37,29.25,29.25,0,0,0,4-1.32l.1,0h0a27.21,27.21,0,0,0,3.89,1.28c.71.15,1.42.25,2.14.33m28-27.42.22-1.81a11.14,11.14,0,0,1-1.74.15,9.59,9.59,0,0,1-9.81-9.36,9.37,9.37,0,0,1,6.28-8.72l-1.14-1.27a20.85,20.85,0,0,0-8.37-5.72,9.53,9.53,0,0,0,.9-4v-5.58h-9.93a10.61,10.61,0,0,0-8.24,3.85,13,13,0,0,0-13-10.71h-3.28v6.45h3.28a6.25,6.25,0,0,1,6.36,6.12V878a27.2,27.2,0,0,1-2.95-.64,20,20,0,0,0-22.46,8.58c-4.23,6.35-5.51,14.8-3.52,23.18a31.79,31.79,0,0,0,10.93,17.67A23.27,23.27,0,0,0,433,931.93H399c-8.75,0-15.86,6.79-15.86,15.13S390.23,962.2,399,962.2h12.11l.09-.06c.43,0,.86.06,1.3.06h34.7l0-.09c.39,0,.78,0,1.17,0l49.73.11v-6.44l-49.72-.11a8.7,8.7,0,1,1,0-17.38l49.73.1,0-6.45-45-.09a18.34,18.34,0,0,0,8.17-2.79,34.37,34.37,0,0,0,14.47-19.93,29.31,29.31,0,0,0,.94-4.71" transform="translate(134.53 -194.37)"/></g><g class="cls-3"><polygon class="cls-4" points="300.18 15.81 372.7 1239.53 1199.44 18.8 1317.79 1239.32 300.18 15.81"/><polygon class="cls-5" points="270.38 8.4 195.04 1257.7 1236.4 27.48 1118.15 1254.87 270.38 8.4"/><polygon class="cls-6" points="115.62 9.08 12.07 1051.34 1399.81 171.2 1275.5 1253.52 115.62 9.08"/><polygon class="cls-7" points="20.68 16.65 153.72 1239.53 1151.76 24.52 1393.98 1222.27 20.68 16.65"/><polygon class="cls-8" points="10.09 410.74 340.68 1242.05 1381.35 518.59 1059.02 1248.11 10.09 410.74"/><polygon class="cls-9" points="11.23 211.43 291.17 1251.28 1393.55 423.79 1217.61 1251.17 11.23 211.43"/><polygon class="cls-10" points="1395.93 112.95 929.57 1249.41 3.54 499.43 62.22 1245.94 1395.93 112.95"/><path class="cls-11" d="M1148,210.61l133.09,1053.45L-126.49,549.8l100.94,887.25ZM-117.21,495.19l428.73,943.13L1264.77,521,1023.4,1437.27ZM1268.14,203.88,943.77,1437.37-70.4,208.29l16.5,1159.59Z" transform="translate(134.53 -194.37)"/><polygon class="cls-12" points="3.54 101.43 233.39 1246.25 1337.02 9.08 1404.3 1159.33 3.54 101.43"/><polygon class="cls-13" points="1010.12 1239.63 1390.17 257.21 22.16 1240.24 175.22 15.84 1010.12 1239.63"/><polygon class="cls-14" points="13.95 457.32 972.79 1249.24 1388.09 188.29 512.32 1245.97 13.95 457.32"/><polygon class="cls-15" points="233.72 9.08 10.97 1151.47 1410.7 69.82 1368.53 1249.41 233.72 9.08"/></g></g></g></svg>