<svg xmlns="http://www.w3.org/2000/svg" xmlns:xlink="http://www.w3.org/1999/xlink" viewBox="0 0 1274.85 1131.53"><defs><style>.cls-1,.cls-10,.cls-11,.cls-12,.cls-13,.cls-14,.cls-15,.cls-4,.cls-5,.cls-6,.cls-7,.cls-8,.cls-9{fill:none;}.cls-2{clip-path:url(#clip-path);}.cls-3{clip-path:url(#clip-path-2);}.cls-4{stroke:#65b2d3;stroke-width:13.27px;}.cls-10,.cls-11,.cls-12,.cls-13,.cls-14,.cls-15,.cls-4,.cls-5,.cls-6,.cls-7,.cls-8,.cls-9{stroke-linecap:round;stroke-linejoin:round;}.cls-5{stroke:#d3a400;stroke-width:8.44px;}.cls-6{stroke:#9fb103;}.cls-10,.cls-12,.cls-6{stroke-width:6.03px;}.cls-7{stroke:#e94250;stroke-width:24.12px;}.cls-8{stroke:#b7326b;}.cls-8,.cls-9{stroke-width:18.09px;}.cls-9{stroke:#3cb5a1;}.cls-10,.cls-11{stroke:#a191b2;}.cls-11{stroke-width:12.06px;}.cls-12,.cls-14{stroke:#ea002a;}.cls-13{stroke:#dfc639;stroke-width:19.3px;}.cls-14{stroke-width:9.05px;}.cls-15{stroke:#007298;stroke-width:16.28px;}</style><clipPath id="clip-path" transform="translate(-60.03 -259.99)"><rect class="cls-1" width="1280" height="5600"/></clipPath><clipPath id="clip-path-2" transform="translate(-60.03 -259.99)"><path class="cls-1" d="M649.38,903.59H587V963h79V942.85l8.68,2.24c.14,0,.14.14.28.14l15.68,9.11a4.29,4.29,0,0,0,2.66.85,4.73,4.73,0,0,0,4.75-4.77V931.63l.15-18.51a3.72,3.72,0,0,0-.7-2.38,4.74,4.74,0,0,0-6.58-1.68l-16,9.25-9,2.38v-17.1ZM595.07,881a9,9,0,0,1,9.23-9.25,9.26,9.26,0,0,1,0,18.51,9.33,9.33,0,0,1-9.23-9.26m-13.3,0a22.54,22.54,0,1,0,22.53-22.57A22.46,22.46,0,0,0,581.77,881m58.37,0a9.24,9.24,0,1,1,18.48,0,9.24,9.24,0,1,1-18.48,0m-13.3,0a22.54,22.54,0,1,0,22.54-22.57A22.55,22.55,0,0,0,626.84,881"/></clipPath></defs><g id="Layer_2" data-name="Layer 2"><g id="Layer_1-2" data-name="Layer 1"><g class="cls-2"><path d="M613.54,881a9.24,9.24,0,1,1-18.47,0,9.06,9.06,0,0,1,9.23-9.25,9.23,9.23,0,0,1,9.24,9.25m13.3,0a22.54,22.54,0,1,0-22.54,22.58A22.54,22.54,0,0,0,626.84,881m13.3,0a9.24,9.24,0,1,1,18.48,0,9.24,9.24,0,1,1-18.48,0m9.24,22.58A22.58,22.58,0,1,0,626.84,881a22.55,22.55,0,0,0,22.54,22.58m48.86,9.53a3.66,3.66,0,0,0-.7-2.38,4.75,4.75,0,0,0-6.58-1.69l-16,9.26-9,2.38v-17.1H587V963h79V942.85l8.68,2.24c.14,0,.14.14.28.14l15.68,9.11a4.31,4.31,0,0,0,2.66.85,4.73,4.73,0,0,0,4.76-4.77V931.63Z" transform="translate(-60.03 -259.99)"/></g><g class="cls-3"><polygon class="cls-4" points="269.06 14.17 334.06 1111.02 1075.09 16.85 1181.16 1110.83 269.06 14.17"/><polygon class="cls-5" points="242.35 7.53 174.82 1127.31 1108.21 24.63 1002.22 1124.77 242.35 7.53"/><polygon class="cls-6" points="103.63 8.14 10.82 942.34 1254.69 153.45 1143.26 1123.56 103.63 8.14"/><polygon class="cls-7" points="18.53 14.93 137.78 1111.02 1032.35 21.98 1249.46 1095.55 18.53 14.93"/><polygon class="cls-8" points="9.05 368.15 305.36 1113.28 1238.13 464.83 949.23 1118.71 9.05 368.15"/><polygon class="cls-9" points="10.07 189.51 260.98 1121.55 1249.08 379.85 1091.38 1121.45 10.07 189.51"/><polygon class="cls-10" points="1251.21 101.24 833.19 1119.87 3.17 447.65 55.77 1116.77 1251.21 101.24"/><path class="cls-11" d="M1209.56,274.54l119.29,944.23L67.23,578.57l90.47,795.26ZM75.54,529.62,459.83,1375,1314.25,552.7,1097.9,1374ZM1317.27,268.5,1026.53,1374.11,117.5,272.46l14.79,1039.37Z" transform="translate(-60.03 -259.99)"/><polygon class="cls-12" points="3.17 90.92 209.19 1117.05 1198.4 8.14 1258.7 1039.14 3.17 90.92"/><polygon class="cls-13" points="905.39 1111.11 1246.04 230.54 19.86 1111.65 157.06 14.19 905.39 1111.11"/><polygon class="cls-14" points="12.5 409.91 871.93 1119.73 1244.17 168.77 459.2 1116.79 12.5 409.91"/><polygon class="cls-15" points="209.49 8.14 9.83 1032.09 1264.45 62.58 1226.64 1119.88 209.49 8.14"/></g></g></g></svg>