<svg xmlns="http://www.w3.org/2000/svg" viewBox="0 0 17.64 17.64"><defs><style>.cls-1{fill:#eee;}</style></defs><g id="Layer_2" data-name="Layer 2"><g id="Layer_1-2" data-name="Layer 1"><polygon class="cls-1" points="0 0 0 15.27 17.64 17.64 17.64 0 0 0"/><path d="M8.82,3c-1.6,0-1.8,0-2.43,0A4,4,0,0,0,5,3.33a2.62,2.62,0,0,0-1,.67,2.77,2.77,0,0,0-.68,1A4.17,4.17,0,0,0,3,6.43c0,.62,0,.82,0,2.4s0,1.77,0,2.39a4.12,4.12,0,0,0,.28,1.41,2.72,2.72,0,0,0,.68,1,2.73,2.73,0,0,0,1,.67,4.27,4.27,0,0,0,1.43.27c.63,0,.83,0,2.43,0s1.8,0,2.43,0a4.22,4.22,0,0,0,1.43-.27,2.84,2.84,0,0,0,1.05-.67,2.72,2.72,0,0,0,.68-1,4.4,4.4,0,0,0,.27-1.41c0-.62,0-.81,0-2.39s0-1.78,0-2.4A4.46,4.46,0,0,0,14.41,5a2.77,2.77,0,0,0-.68-1,2.72,2.72,0,0,0-1.05-.67,4,4,0,0,0-1.43-.27c-.63,0-.83,0-2.43,0m0,1.05c1.58,0,1.76,0,2.38,0a3.43,3.43,0,0,1,1.1.2,1.82,1.82,0,0,1,.68.44,1.87,1.87,0,0,1,.44.66,3.13,3.13,0,0,1,.2,1.08c0,.61,0,.8,0,2.35s0,1.73,0,2.35a3,3,0,0,1-.2,1.07,2,2,0,0,1-1.12,1.11,3.43,3.43,0,0,1-1.1.2c-.62,0-.8,0-2.38,0s-1.76,0-2.38,0a3.35,3.35,0,0,1-1.09-.2,1.74,1.74,0,0,1-.68-.44,1.6,1.6,0,0,1-.44-.67A3.19,3.19,0,0,1,4,11.18c0-.62,0-.8,0-2.35S4,7.09,4,6.48A3.33,3.33,0,0,1,4.23,5.4a1.63,1.63,0,0,1,.44-.66,1.74,1.74,0,0,1,.68-.44,3.35,3.35,0,0,1,1.09-.2c.62,0,.81,0,2.38,0"/><path d="M8.82,10.77a1.94,1.94,0,1,1,2-1.94,2,2,0,0,1-2,1.94m0-4.92a3,3,0,1,0,3,3,3,3,0,0,0-3-3"/></g></g></svg>