<svg xmlns="http://www.w3.org/2000/svg" viewBox="0 0 61.43 54.52"><defs><style>.cls-1,.cls-10,.cls-11,.cls-12,.cls-2,.cls-3,.cls-4,.cls-5,.cls-6,.cls-7,.cls-8,.cls-9{fill:none;stroke-linecap:round;stroke-linejoin:round;}.cls-1{stroke:#65b2d3;stroke-width:0.64px;}.cls-2{stroke:#d3a400;stroke-width:0.41px;}.cls-3{stroke:#9fb103;}.cls-3,.cls-7,.cls-9{stroke-width:0.29px;}.cls-4{stroke:#e94250;stroke-width:1.16px;}.cls-5{stroke:#b7326b;}.cls-5,.cls-6{stroke-width:0.87px;}.cls-6{stroke:#3cb5a1;}.cls-7,.cls-8{stroke:#a191b2;}.cls-8{stroke-width:0.58px;}.cls-11,.cls-9{stroke:#ea002a;}.cls-10{stroke:#dfc639;stroke-width:0.93px;}.cls-11{stroke-width:0.44px;}.cls-12{stroke:#007298;stroke-width:0.79px;}</style></defs><g id="Layer_2" data-name="Layer 2"><g id="Layer_1-2" data-name="Layer 1"><polygon class="cls-1" points="12.96 0.68 16.1 53.54 51.8 0.81 56.92 53.53 12.96 0.68"/><polygon class="cls-2" points="11.68 0.36 8.42 54.32 53.4 1.19 48.29 54.2 11.68 0.36"/><polygon class="cls-3" points="4.99 0.39 0.52 45.41 60.46 7.39 55.09 54.14 4.99 0.39"/><polygon class="cls-4" points="0.89 0.72 6.64 53.54 49.75 1.06 60.21 52.79 0.89 0.72"/><polygon class="cls-5" points="0.44 17.74 14.71 53.65 59.66 22.4 45.74 53.91 0.44 17.74"/><polygon class="cls-6" points="0.48 9.13 12.58 54.04 60.19 18.3 52.59 54.04 0.48 9.13"/><polygon class="cls-7" points="60.29 4.88 40.15 53.96 0.15 21.57 2.69 53.81 60.29 4.88"/><path class="cls-8" d="M55.39.7l5.75,45.5L.35,15.35,4.71,53.67ZM.75,13,19.27,53.73,60.44,14.1,50,53.68ZM60.58.41l-14,53.28L2.77.6l.71,50.08Z"/><polygon class="cls-9" points="0.15 4.38 10.08 53.83 57.75 0.39 60.65 50.07 0.15 4.38"/><polygon class="cls-10" points="43.63 53.54 60.04 11.11 0.96 53.57 7.57 0.68 43.63 53.54"/><polygon class="cls-11" points="0.6 19.75 42.02 53.96 59.95 8.13 22.13 53.81 0.6 19.75"/><polygon class="cls-12" points="10.1 0.39 0.47 49.73 60.93 3.02 59.11 53.96 10.1 0.39"/></g></g></svg>