<svg xmlns="http://www.w3.org/2000/svg" xmlns:xlink="http://www.w3.org/1999/xlink" viewBox="0 0 1274.85 1131.53"><defs><style>.cls-1,.cls-10,.cls-11,.cls-12,.cls-13,.cls-14,.cls-15,.cls-4,.cls-5,.cls-6,.cls-7,.cls-8,.cls-9{fill:none;}.cls-2{clip-path:url(#clip-path);}.cls-3{clip-path:url(#clip-path-2);}.cls-4{stroke:#65b2d3;stroke-width:13.27px;}.cls-10,.cls-11,.cls-12,.cls-13,.cls-14,.cls-15,.cls-4,.cls-5,.cls-6,.cls-7,.cls-8,.cls-9{stroke-linecap:round;stroke-linejoin:round;}.cls-5{stroke:#d3a400;stroke-width:8.44px;}.cls-6{stroke:#9fb103;}.cls-10,.cls-12,.cls-6{stroke-width:6.03px;}.cls-7{stroke:#e94250;stroke-width:24.12px;}.cls-8{stroke:#b7326b;}.cls-8,.cls-9{stroke-width:18.09px;}.cls-9{stroke:#3cb5a1;}.cls-10,.cls-11{stroke:#a191b2;}.cls-11{stroke-width:12.06px;}.cls-12,.cls-14{stroke:#ea002a;}.cls-13{stroke:#dfc639;stroke-width:19.3px;}.cls-14{stroke-width:9.05px;}.cls-15{stroke:#007298;stroke-width:16.28px;}</style><clipPath id="clip-path" transform="translate(416.67 -299.75)"><rect class="cls-1" width="1280" height="5600"/></clipPath><clipPath id="clip-path-2" transform="translate(416.67 -299.75)"><path class="cls-1" d="M215.28,914.67a22.05,22.05,0,1,0,22.05-22.08,22,22,0,0,0-22.05,22.08m56-19.39a4.2,4.2,0,0,1,4-4h5.18a4.19,4.19,0,0,1,4.4,4,4.1,4.1,0,0,1-3.88,4.41h-5.7a4.2,4.2,0,0,1-4-4.41m-65.88,19.31a32.1,32.1,0,1,1,32.1,32.14,32,32,0,0,1-32.1-32.14M223.21,863a14.23,14.23,0,0,0-11.77,6.21l-6.86,10.37H192.15a14.2,14.2,0,0,0-14.23,14.25v50.28a14.2,14.2,0,0,0,14.23,14.26h90.6A14.2,14.2,0,0,0,297,944.13V893.85a14.2,14.2,0,0,0-14.23-14.25H270.33l-6.87-10.37A14.23,14.23,0,0,0,251.69,863Z"/></clipPath></defs><g id="Layer_2" data-name="Layer 2"><g id="Layer_1-2" data-name="Layer 1"><g class="cls-2"><path d="M259.38,914.51a22.05,22.05,0,1,0-22,22.08,22,22,0,0,0,22-22.08m25.44-19.23a4.1,4.1,0,0,1-3.88,4.41h-5.7a4.22,4.22,0,0,1,0-8.43h5.18a4.21,4.21,0,0,1,4.4,4m-15.27,19.44a32.1,32.1,0,1,1-32.1-32.14,32.09,32.09,0,0,1,32.1,32.14M297,944.13V893.86a14.21,14.21,0,0,0-14.24-14.26H270.32l-6.86-10.37A14.24,14.24,0,0,0,251.69,863H223.21a14.24,14.24,0,0,0-11.77,6.22l-6.86,10.37H192.15a14.2,14.2,0,0,0-14.23,14.26v50.27a14.2,14.2,0,0,0,14.23,14.26h90.6A14.21,14.21,0,0,0,297,944.13" transform="translate(416.67 -299.75)"/></g><g class="cls-3"><polygon class="cls-4" points="269.06 14.17 334.06 1111.02 1075.09 16.85 1181.16 1110.83 269.06 14.17"/><polygon class="cls-5" points="242.35 7.53 174.82 1127.31 1108.21 24.63 1002.22 1124.77 242.35 7.53"/><polygon class="cls-6" points="103.63 8.14 10.82 942.34 1254.69 153.45 1143.26 1123.56 103.63 8.14"/><polygon class="cls-7" points="18.53 14.93 137.78 1111.02 1032.35 21.98 1249.46 1095.55 18.53 14.93"/><polygon class="cls-8" points="9.05 368.15 305.36 1113.28 1238.13 464.83 949.23 1118.71 9.05 368.15"/><polygon class="cls-9" points="10.07 189.51 260.98 1121.55 1249.08 379.85 1091.38 1121.45 10.07 189.51"/><polygon class="cls-10" points="1251.21 101.24 833.19 1119.87 3.17 447.65 55.77 1116.77 1251.21 101.24"/><path class="cls-11" d="M732.87,314.3l119.28,944.24L-409.46,618.33-319,1413.59Zm-1134,255.08,384.29,845.35L837.56,592.47,621.21,1413.78ZM840.57,308.27,549.84,1413.88l-909-1101.66,14.79,1039.37Z" transform="translate(416.67 -299.75)"/><polygon class="cls-12" points="3.17 90.92 209.19 1117.05 1198.4 8.14 1258.7 1039.14 3.17 90.92"/><polygon class="cls-13" points="905.39 1111.11 1246.04 230.54 19.86 1111.65 157.06 14.19 905.39 1111.11"/><polygon class="cls-14" points="12.5 409.91 871.93 1119.72 1244.17 168.77 459.2 1116.79 12.5 409.91"/><polygon class="cls-15" points="209.49 8.14 9.83 1032.09 1264.45 62.58 1226.64 1119.88 209.49 8.14"/></g></g></g></svg>