<svg xmlns="http://www.w3.org/2000/svg" viewBox="0 0 242.41 25.54"><g id="Layer_2" data-name="Layer 2"><g id="Layer_1-2" data-name="Layer 1"><path d="M224.42,25.54h18v-5.2H230V15.15h11.08V10H230V5.19h11.72V0H224.42Zm-23.2,0h5.63V5h7.29V0h-20.2V5h7.28ZM172,4.76h3.68a11.78,11.78,0,0,1,1.55.11,4.56,4.56,0,0,1,1.41.41,2.7,2.7,0,0,1,1,.89,2.71,2.71,0,0,1,.4,1.55,2.62,2.62,0,0,1-.45,1.62,2.72,2.72,0,0,1-1.14.85,4.89,4.89,0,0,1-1.53.32c-.57,0-1.1.06-1.61.06H172Zm-5.62,20.78H172V15.33h2.78l5.34,10.21h6.74l-6.49-10.79a6.29,6.29,0,0,0,4.11-2.4,7.47,7.47,0,0,0,1.41-4.6A8,8,0,0,0,185.08,4,6.2,6.2,0,0,0,183,1.64,8.74,8.74,0,0,0,179.93.38a17.64,17.64,0,0,0-3.7-.38h-9.88ZM146.11,15.36h-6.24L143,7.43ZM129.77,25.54H136l2.12-5.41H148l2.2,5.41h6.35L145.46,0h-4.65Zm-19-20.78h2.89a16.11,16.11,0,0,1,1.66.09,4.84,4.84,0,0,1,1.57.42,2.89,2.89,0,0,1,1.15.92,2.49,2.49,0,0,1,.45,1.56,3,3,0,0,1-.34,1.5,2.62,2.62,0,0,1-.9.94,3.9,3.9,0,0,1-1.26.49,7.77,7.77,0,0,1-1.46.14h-3.76Zm-5.62,20.78h5.62v-10h4.12a17.14,17.14,0,0,0,3.75-.38,8,8,0,0,0,3-1.28,6.19,6.19,0,0,0,2-2.41,8.57,8.57,0,0,0,.73-3.76A8.13,8.13,0,0,0,123.55,4a6.36,6.36,0,0,0-2.09-2.38A8.74,8.74,0,0,0,118.38.36,18.82,18.82,0,0,0,114.62,0h-9.48ZM80.83,4.76h2.88a16,16,0,0,1,1.66.09,4.84,4.84,0,0,1,1.57.42,3,3,0,0,1,1.16.92,2.49,2.49,0,0,1,.45,1.56,3,3,0,0,1-.35,1.5,2.47,2.47,0,0,1-.9.94,3.9,3.9,0,0,1-1.26.49,7.77,7.77,0,0,1-1.46.14H80.83ZM75.2,25.54h5.63v-10h4.11a17,17,0,0,0,3.75-.38,8,8,0,0,0,3-1.28,6.13,6.13,0,0,0,2-2.41,8.72,8.72,0,0,0,.72-3.76A8.13,8.13,0,0,0,93.61,4,6.27,6.27,0,0,0,91.52,1.6,8.67,8.67,0,0,0,88.44.36,18.79,18.79,0,0,0,84.69,0H75.2ZM55,15.36H48.73l3.1-7.93ZM38.63,25.54h6.2L47,20.13h9.92l2.2,5.41h6.35L54.32,0H49.67ZM0,25.54H5.63V6H5.7l6.45,19.59h4.3L23.16,6h.07V25.54h5.62V0H20.38L14.46,16.66h-.07L8.51,0H0Z"/></g></g></svg>