<svg xmlns="http://www.w3.org/2000/svg" viewBox="0 0 33 33.87"><defs><style>.cls-1{fill:#9fb203;}</style></defs><g id="Layer_2" data-name="Layer 2"><g id="Layer_1-2" data-name="Layer 1"><path class="cls-1" d="M33,12.86a1,1,0,0,0-.78-.71l-10.23-1.6L17.37.58A1,1,0,0,0,15.74.36L11.06,10.55.83,12.15a1,1,0,0,0-.78.71,1.09,1.09,0,0,0,.24,1.07l7.4,7.76L6,32.65a1.06,1.06,0,0,0,.38,1,.94.94,0,0,0,.57.2.92.92,0,0,0,.45-.12l9.15-5.18,9.15,5.18a.93.93,0,0,0,1-.08,1.08,1.08,0,0,0,.38-1l-1.75-11,7.41-7.76A1.09,1.09,0,0,0,33,12.86"/></g></g></svg>