<svg xmlns="http://www.w3.org/2000/svg" xmlns:xlink="http://www.w3.org/1999/xlink" viewBox="0 0 1274.85 1131.53"><defs><style>.cls-1,.cls-10,.cls-11,.cls-12,.cls-13,.cls-14,.cls-15,.cls-4,.cls-5,.cls-6,.cls-7,.cls-8,.cls-9{fill:none;}.cls-2{clip-path:url(#clip-path);}.cls-3{clip-path:url(#clip-path-2);}.cls-4{stroke:#65b2d3;stroke-width:13.27px;}.cls-10,.cls-11,.cls-12,.cls-13,.cls-14,.cls-15,.cls-4,.cls-5,.cls-6,.cls-7,.cls-8,.cls-9{stroke-linecap:round;stroke-linejoin:round;}.cls-5{stroke:#d3a400;stroke-width:8.44px;}.cls-6{stroke:#9fb103;}.cls-10,.cls-12,.cls-6{stroke-width:6.03px;}.cls-7{stroke:#e94250;stroke-width:24.12px;}.cls-8{stroke:#b7326b;}.cls-8,.cls-9{stroke-width:18.09px;}.cls-9{stroke:#3cb5a1;}.cls-10,.cls-11{stroke:#a191b2;}.cls-11{stroke-width:12.06px;}.cls-12,.cls-14{stroke:#ea002a;}.cls-13{stroke:#dfc639;stroke-width:19.3px;}.cls-14{stroke-width:9.05px;}.cls-15{stroke:#007298;stroke-width:16.28px;}</style><clipPath id="clip-path" transform="translate(202 -281.97)"><rect class="cls-1" width="1280" height="5600"/></clipPath><clipPath id="clip-path-2" transform="translate(202 -281.97)"><path class="cls-1" d="M874.33,919.08a29.26,29.26,0,0,1-58.5,0h-7.17a36.47,36.47,0,0,0,32.83,35.55v5.53l7.17-.44v-5.09a36.47,36.47,0,0,0,32.84-35.55Zm-50.84-36.25h11a3.59,3.59,0,1,1,0,7.17h-11v7.23h11a3.59,3.59,0,1,1,0,7.17h-11v7.23h11a3.59,3.59,0,1,1,0,7.17h-11v0a21.59,21.59,0,0,0,43.17,0v0h-11a3.59,3.59,0,1,1,0-7.17h11v-7.23h-11a3.59,3.59,0,1,1,0-7.17h11V890h-11a3.59,3.59,0,1,1,0-7.17h11a21.59,21.59,0,0,0-43.17,0"/></clipPath></defs><g id="Layer_2" data-name="Layer 2"><g id="Layer_1-2" data-name="Layer 1"><g class="cls-2"><path d="M855.63,897.24h11V890h-11a3.59,3.59,0,1,1,0-7.17h11a21.58,21.58,0,1,0-43.16,0h11a3.59,3.59,0,1,1,0,7.17h-11v7.23h11a3.59,3.59,0,1,1,0,7.17h-11v7.23h11a3.59,3.59,0,1,1,0,7.17h-11v0a21.59,21.59,0,0,0,43.17,0v0h-11a3.59,3.59,0,1,1,0-7.17h11v-7.23h-11a3.59,3.59,0,1,1,0-7.17m25.87,21.84h-7.17a29.26,29.26,0,0,1-58.5,0h-7.17a36.47,36.47,0,0,0,32.83,35.55v5.53l7.17-.44v-5.09a36.47,36.47,0,0,0,32.84-35.55" transform="translate(202 -281.97)"/></g><g class="cls-3"><polygon class="cls-4" points="269.06 14.17 334.06 1111.02 1075.09 16.85 1181.16 1110.83 269.06 14.17"/><polygon class="cls-5" points="242.35 7.53 174.82 1127.31 1108.21 24.63 1002.22 1124.77 242.35 7.53"/><polygon class="cls-6" points="103.63 8.14 10.82 942.34 1254.69 153.45 1143.26 1123.56 103.63 8.14"/><polygon class="cls-7" points="18.53 14.93 137.78 1111.02 1032.35 21.98 1249.46 1095.55 18.53 14.93"/><polygon class="cls-8" points="9.05 368.15 305.36 1113.28 1238.13 464.83 949.23 1118.71 9.05 368.15"/><polygon class="cls-9" points="10.07 189.51 260.98 1121.55 1249.08 379.85 1091.38 1121.45 10.07 189.51"/><polygon class="cls-10" points="1251.21 101.24 833.19 1119.87 3.17 447.65 55.77 1116.77 1251.21 101.24"/><path class="cls-11" d="M947.53,296.52l119.29,944.24L-194.8,600.55l90.47,795.27Zm-1134,255.08L197.8,1397l854.42-822.26L835.87,1396ZM1055.24,290.49,764.5,1396.1l-909-1101.65,14.8,1039.36Z" transform="translate(202 -281.97)"/><polygon class="cls-12" points="3.17 90.92 209.19 1117.05 1198.4 8.14 1258.7 1039.14 3.17 90.92"/><polygon class="cls-13" points="905.39 1111.11 1246.04 230.54 19.86 1111.65 157.06 14.19 905.39 1111.11"/><polygon class="cls-14" points="12.5 409.91 871.93 1119.72 1244.17 168.77 459.2 1116.79 12.5 409.91"/><polygon class="cls-15" points="209.49 8.14 9.83 1032.09 1264.45 62.58 1226.64 1119.88 209.49 8.14"/></g></g></g></svg>