<svg xmlns="http://www.w3.org/2000/svg" viewBox="0 0 17.64 17.64"><defs><style>.cls-1{fill:#eee;}</style></defs><g id="Layer_2" data-name="Layer 2"><g id="Layer_1-2" data-name="Layer 1"><polygon class="cls-1" points="0 0 0 17.64 17.64 15.73 17.64 0 0 0"/><path d="M16,4.63a5.12,5.12,0,0,1-1.61.44A2.73,2.73,0,0,0,15.6,3.53a5.49,5.49,0,0,1-1.77.67A2.81,2.81,0,0,0,9,6.12a3.39,3.39,0,0,0,.07.64A8,8,0,0,1,3.28,3.83,2.83,2.83,0,0,0,2.9,5.24,2.8,2.8,0,0,0,4.15,7.57a2.74,2.74,0,0,1-1.27-.35v0A2.8,2.8,0,0,0,5.13,10a2.64,2.64,0,0,1-.74.1,3.07,3.07,0,0,1-.53,0A2.83,2.83,0,0,0,6.48,12,5.63,5.63,0,0,1,3,13.19c-.23,0-.45,0-.67,0a8,8,0,0,0,4.29,1.25,7.9,7.9,0,0,0,8-8c0-.13,0-.25,0-.37A5.52,5.52,0,0,0,16,4.63"/></g></g></svg>